<?xml version="1.0" encoding="UTF-8"?>
<svg id="Layer_1" xmlns="http://www.w3.org/2000/svg" version="1.1" xmlns:xlink="http://www.w3.org/1999/xlink" viewBox="0 0 260.6 183.6">
  <!-- Generator: Adobe Illustrator 29.0.0, SVG Export Plug-In . SVG Version: 2.1.0 Build 186)  -->
  <defs>
    <style>
      .st0 {
        fill: #231f20;
      }

      .st1 {
        fill: none;
      }

      .st2 {
        clip-path: url(#clippath);
      }
    </style>
    <clipPath id="clippath">
      <rect class="st1" width="260.6" height="183.6"/>
    </clipPath>
  </defs>
  <g class="st2">
    <path class="st0" d="M255.9,3.9c-.7,0-3.6,0-4.5,0-.9,0-2.3,0-2.9,0-.6,0-2.2,0-3.7,0-1.5,0-9.8,0-11.6,0-1.8,0-10.7,0-11.4,0-.7,0-2.5,0-3,0-.5,0-2.1,0-3.4,0-1.3,0-15.7-.1-16.9-.1-1.1,0-6.9,0-9.4,0-2.5,0-21.6,0-23.8,0-2.2,0-8.1,0-9.4,0-1.4,0-2.5,0-3.2,0-.4,0-1.8,0-2.4,0-.6,0-2.2,0-2.8,0s-2.2,0-3.1,0h-15.5c-1.3,0-24.5,0-25.4,0s-2.9,0-4,0c-1.1,0-2,0-2.5,0-.5,0-1.9,0-2.3,0-.5,0-.8,0-1.7,0-.6,0-2.5,0-3.2,0-.7,0-1.8,0-2.8,0-.5,0-1.4,0-2,0-.9,0-2.2,0-4.1,0-1.9,0-15.8,0-17.1,0-1.3,0-6,0-7.8,0-.4,0-2.8,0-4.6,0-.7,0-2.1,0-2.6,0-.5,0-10.6,0-11.8.1-1.2,0-2.6-.2-3.1-.3-.5-.1-1.9-.6-3-1.1-.3-.1-1.5-.7-2.7-1.3-1.2-.5-2.5-.8-2.9-.9-.4,0-1.4-.2-2.3-.1-.5,0-1,.1-1.4.2-.4.1-.7.2-.9.2-.3,0-1.4.5-2.2,1.1-.9.6-1.7,1.3-2,1.6-.4.4-1.4,1.7-1.9,2.7l.4.2c.3-.5.9-1.6,2-2.7,1-1.1,2.5-2.1,4.2-2.5,1.6-.5,3.4-.4,4.6-.1,1.3.3,2.2.7,2.4.8.3.1,1.2.6,2.6,1.2,1.3.6,3.1,1.3,5,1.4,3.7,0,7.2,0,7.6,0,.9,0,4,0,5.3,0,1,0,6,0,7.5,0,1.4,0,22.6,0,24.1,0,1.4,0,3.1,0,4.1,0,1.2,0,2.6,0,3.4,0,.8,0,1.9,0,2.4,0,.5,0,1.5,0,1.8,0,1.8,0,2.3,0,2.6,0,.6,0,2.1,0,3,0,.9,0,20.4,0,21.9,0,1.5,0,21.6,0,23.2,0,1.7,0,6,0,6.8,0,.8,0,2.4,0,3.3,0,.9,0,2.4,0,3,0,.5,0,2.2,0,3.5,0,1.3,0,4.3,0,6.3,0,2,0,11.4,0,13.6,0,2.2,0,9.3,0,9.9,0,.6,0,2.6,0,3.4,0,1.2,0,2.6,0,3.1,0,.5,0,4.7,0,5.8,0,1.1,0,10.7,0,12.3,0,1.6,0,4,0,4.4,0,.4,0,3.2,0,3.6,0,.4,0,3.9,0,5.8,0,1.9,0,5.1,0,6,0h2.7c.5,0,1.4,0,2.4,0,.4,0,1.6,0,2.6,0,.8,0,3.6,0,4.9,0h8.5c.9,0,1.8,0,3.1,0h3.3v-.4c-.2,0-1.8,0-1.9,0-.3,0-2.1,0-2.8,0"/>
    <path class="st0" d="M51,3.8c-.1,0-.6,0-.8,0-.2,0-.4,0-.5,0-.1,0-.4,0-.7,0-.3,0-1.7-.1-2.1-.2-.3,0-1.9-.2-2-.2-.1,0-.4,0-.5,0,0,0-.4,0-.6-.1-.2,0-2.7-.7-2.9-.8-.2,0-1.2-.3-1.6-.4-.2,0-1.2-.3-2.1-.4-1-.1-2,0-2.2,0-.4,0-1.5.3-1.7.4-.2.1-.4.2-.6.2,0,0-.3.2-.4.2-.1,0-.4.2-.4.2,0,0-.3.2-.5.2,0,0-.6.3-1.3.5-.6.2-1.2.3-1.4.3-.1,0-1.2.2-2.3.3-1.1,0-2.2,0-2.2,0-.2,0-.5,0-.7,0-.2,0-.4,0-.4,0,0,0-.3,0-.4,0,0,0-.1,0-.3,0-.1,0-.4,0-.6,0-.1,0-.3,0-.5,0,0,0-.2,0-.3-.1-.2,0-.4-.1-.7-.2-.3,0-2.6-1-2.8-1.1-.2-.1-1-.4-1.3-.5,0,0-.5-.2-.8-.3-.1,0-.3-.2-.4-.2,0,0-.5-.1-1-.3-.5-.1-1-.2-1.1-.2-.2,0-.5,0-.6-.1,0,0-.4,0-.6,0-.1,0-.9,0-1.1,0-.1,0-.7,0-.8,0-.1,0-.8,0-.9,0,0,0-.4,0-.6,0v.4c.3,0,.9,0,1.5,0,.6,0,1.2,0,1.3.1.1,0,.8,0,1.4.2.6.1,1.2.3,1.3.3.1,0,.7.2.9.2.2,0,1,.4,1.2.5.1,0,1.1.4,2,.8.9.4,1.9.7,2.1.7.2,0,.5.2.7.2.2,0,.5.1.6.2.1,0,.3,0,.4,0,0,0,.3,0,.3,0,.3,0,.4,0,.5,0,.1,0,.4,0,.6,0,0,0,1,0,1.9,0,.9,0,1.9-.1,2-.1.1,0,1.1,0,2.1-.3,1-.2,1.9-.5,2.1-.6.3-.1,1-.5,1.1-.5.1,0,.4-.2.5-.2.2,0,.4-.1.5-.2,0,0,.4-.1.6-.2.2,0,.7-.1,1-.2.2,0,.7,0,1.2,0,.5,0,1,0,1.2.1.4,0,1.6.3,1.7.3.1,0,.5,0,.6.1.2,0,.5,0,.5.2,0,0,.8.3,1,.3.2,0,1.9.5,2.1.5.3,0,.7.1.8.1,0,0,.6,0,.6,0,0,0,.7.1,1,.2.3,0,.9,0,1.1.1.2,0,.3,0,.5,0,0,0,.3,0,.4,0,0,0,.3,0,.5,0,.1,0,.6,0,.9,0,.2,0,1.4,0,1.5,0,.2,0,.3,0,.6,0,0,0,.6,0,.6,0v-.4s-.3,0-.3,0c0,0-.4,0-.5,0"/>
    <path class="st0" d="M0,6.8c0,.1,0,.6,0,.7,0,.1.1.3.1.4,0,0,0,.3.2.5,0,0,.2.4.4.8.2.3.4.6.5.8,0,.1.4.4.7.7.3.3.6.4.7.5,0,0,.3.2.4.2,0,0,.3.1.5.2,0,0,.6.3,1.2.5.6.2,1.2.2,1.3.2,0,0,.4,0,.6,0,.3,0,.6-.1.8-.2.2,0,1-.3,1.7-.7.7-.4,1.3-1,1.4-1.2.3-.2.7-1,.8-1.2,0-.2.2-.3.2-.4,0,0,0-.3.1-.3,0,0,.1-.3.1-.4,0,0,0-.3,0-.5,0,0,.1-.6.1-1.1,0-.5,0-1.1-.1-1.2,0,0-.2-1-.6-1.8-.4-.8-1.1-1.5-1.2-1.5,0,0-.3-.3-.5-.4-.2,0-.2-.2-.3-.2,0,0-.3-.2-.3-.2,0,0,0,0-.2-.1,0,0-.4-.1-.5-.2-.1,0-.3-.1-.4-.1,0,0-.2,0-.3-.1-.1,0-.3-.1-.6-.2-.1,0-.7-.1-1.3,0-.6,0-1.2.2-1.3.2-.2,0-.9.3-1.1.5,0,0-.4.2-.6.4,0,0-.3.1-.4.2,0,0-.3.3-.6.6-.3.3-.5.7-.6.8,0,.2-.2.3-.3.4,0,0-.2.3-.2.4,0,0-.3.7-.3.9,0,.1-.2.5-.2.6,0,.1-.1.6-.1.7,0,0,0,.3,0,.5h.4c0-.2,0-.7.2-1.2.1-.5.3-.9.4-1,0,0,.2-.5.5-1,.3-.4.6-.8.7-.8,0,0,.4-.4.5-.5,0-.1.7-.5.9-.5,0,0,.8-.4,1.6-.5.8-.1,1.6,0,1.7,0,.2,0,.4.1.5.2.2,0,.3.1.4.2,0,0,.2,0,.3.1,0,0,.2,0,.2,0,.2,0,.3.1.3.1,0,0,.2.2.4.2,0,0,.7.4,1.1,1,.5.5.8,1.2.8,1.3,0,0,.3.8.4,1.5,0,.8,0,1.5,0,1.6,0,.2-.2.8-.2.9,0,0,0,.3-.2.4,0,.1-.2.3-.2.4,0,0-.2.2-.3.4,0,.1-.3.5-.5.7,0,.1-.4.4-.7.6-.3.3-.7.4-.8.5-.3.2-1.2.5-1.3.5,0,0-.3.1-.5.1-.2,0-.4,0-.4,0,0,0-.7,0-.8,0,0,0-.4,0-.8-.1-.4,0-.7-.2-.8-.3-.2,0-.5-.2-.6-.2,0,0-.4-.2-.4-.2,0,0-.5-.3-.6-.5-.2-.2-.5-.5-.6-.6,0,0-.2-.2-.2-.3,0,0-.1-.2-.2-.3,0,0-.1-.2-.2-.3,0-.1-.3-.4-.3-.6,0-.2-.4-1-.3-1.2,0-.1,0-.2,0-.4v-.5s-.5,0-.5,0c0,0,0,.3,0,.3,0,0,0,.3,0,.4"/>
    <path class="st0" d="M2.3,6.6c0,0,0,.4,0,.4,0,0,0,.2,0,.3,0,0,0,.2.1.3,0,.1.5.8.6,1,0,.2.8.7.9.7,0,0,.2.1.3.1,0,0,.2,0,.3.1,0,0,.4.2.8.3.4.1.7.1.8.1.1,0,.7,0,.9-.2.1,0,.6-.2,1.1-.5.4-.3.8-.6.9-.7.2-.1.4-.6.5-.7,0-.1.1-.2.1-.3,0,0,0-.2,0-.2,0,0,0-.2,0-.2,0,0,0-.2,0-.3,0,0,0-.4,0-.7,0-.3,0-.7,0-.7,0,0-.1-.6-.4-1.1-.3-.5-.7-.9-.7-.9,0,0-.2-.2-.3-.3-.1,0-.1-.1-.2-.2,0,0-.2-.1-.2-.1,0,0,0,0-.1,0,0,0-.2,0-.3-.1,0,0-.2,0-.3,0,0,0-.1,0-.2,0,0,0-.2-.1-.4-.1,0,0-.5,0-.8,0-.4,0-.7,0-.8.1-.1,0-.5.2-.7.3,0,0-.3,0-.4.2,0,0-.2,0-.2.1,0,0-.7.7-.7.9,0,.1-.1.2-.2.2,0,0-.1.2-.1.3,0,0-.1.5-.2.5,0,0-.1.3-.2.4,0,0,0,.4,0,.5,0,0,0,.2,0,.3h.4c0-.1,0-.4.1-.7,0-.3.2-.5.2-.6,0,0,.1-.3.3-.6.2-.2.4-.4.4-.5,0,0,.2-.2.3-.3,0,0,.4-.3.5-.3,0,0,.5-.2.9-.3.5,0,.9,0,1,0,.1,0,.2,0,.3.1,0,0,.2,0,.3.1,0,0,.1,0,.2,0,0,0,.1,0,.1,0,.1,0,.2,0,.2,0,0,0,.1,0,.2.1,0,0,.4.3.7.6.3.3.5.7.5.8,0,0,.2.5.2.9,0,.4,0,.9,0,1,0,.1,0,.5-.1.5,0,0,0,.2-.1.2,0,0-.1.2-.1.2,0,0-.1.1-.2.2,0,0-.2.3-.3.4,0,.1-.7.6-.8.7-.1.1-.7.3-.7.3,0,0-.2,0-.3,0,0,0-.2,0-.3,0,0,0-.4,0-.5,0,0,0-.9-.2-1-.2-.1,0-.3-.1-.3-.1,0,0-.3,0-.3-.1,0,0-.3-.2-.4-.3-.1,0-.3-.3-.4-.3,0,0,0-.1-.1-.2,0,0,0,0-.1-.2,0,0,0-.1-.1-.2,0,0-.2-.3-.2-.4,0-.1-.2-.6-.2-.7,0,0,0-.1,0-.3v-.3s-.5,0-.5,0c0,0,0,.2,0,.2,0,0,0,.2,0,.3"/>
    <path class="st0" d="M4.4,180.4c0-.5,0-2.5,0-3.1,0-.6,0-1.6,0-2,0-.4,0-1.5,0-2.6,0-1,0-6.8,0-8,0-1.3,0-7.4,0-7.9,0-.5,0-1.7,0-2.1,0-.3,0-1.4,0-2.3,0-.9.1-10.9.1-11.6,0-.8,0-4.8,0-6.5,0-1.7,0-14.9,0-16.4,0-1.5,0-5.6,0-6.5,0-1,0-1.7,0-2.2,0-.3,0-1.3,0-1.7,0-.4,0-1.5,0-1.9s0-1.5,0-2.1v-10.7c0-.9,0-16.9,0-17.5s0-2,0-2.8c0-.8,0-1.4,0-1.7,0-.3,0-1.3,0-1.6,0-.4,0-.5,0-1.2,0-.4,0-1.7,0-2.2,0-.5,0-1.3,0-2,0-.4,0-1,0-1.4,0-.6,0-1.5,0-2.8,0-1.3,0-10.9,0-11.8,0-.9,0-4.1,0-5.4,0-.3,0-1.9,0-3.2,0-.5,0-1.4,0-1.8,0-.2,0-2.1-.5-3.9-.5-1.9-1.6-3.6-1.7-3.9-.4-.7-.8-1.7-.9-2-.1-.3-.5-1.3-.6-2.1,0-.2-.2-1.1-.2-2,0-.4,0-.9.1-1.3,0-.4.1-.7.2-.8,0-.3.3-.9.5-1.5.3-.6.6-1.1.8-1.3.1-.2.5-.8,1-1.3.5-.5,1-1,1.2-1.1.3-.2,1.2-.9,1.8-1.2l-.2-.4c-.8.4-3.1,1.8-4.4,3.9-.7,1-1.1,2.2-1.3,3.1-.2.9-.2,1.6-.2,1.8,0,.1,0,.4,0,.7,0,.3,0,.8.1,1.3.2,1,.6,2.2,1.2,3.4.5,1.1,1.1,2.2,1.5,3.1.4.9.5,1.5.6,1.7,0,.3.2.9.3,1.6,0,.7,0,1.4,0,1.9,0,.7,0,4.2,0,5.2,0,1,0,15.6,0,16.6,0,1,0,2.1,0,2.8,0,.8,0,1.8,0,2.4,0,.6,0,1.3,0,1.7,0,.4,0,1,0,1.2,0,1.3,0,1.6,0,1.8,0,.4,0,1.5,0,2.1,0,.6,0,14,0,15.1,0,1,0,14.9,0,16,0,1.1,0,4.2,0,4.7,0,.5,0,1.6,0,2.3,0,.6,0,1.7,0,2,0,.4,0,1.5,0,2.4,0,.9,0,3,0,4.3,0,1.4,0,7.9,0,9.4,0,1.5,0,6.4,0,6.8,0,.4,0,1.8,0,2.4,0,.9,0,1.8,0,2.2,0,.4,0,3.2,0,4,0,.7,0,7.4,0,8.5,0,1.1,0,2.7,0,3,0,.3,0,2.2,0,2.5,0,.3,0,2.7,0,4,0,1.3,0,3.5,0,4.1v1.9c0,.3,0,1,0,1.6,0,.3,0,1.1,0,1.8,0,.6,0,2.5,0,3.4,0,.9,0,5.3,0,5.9,0,.6,0,1.2,0,2.1v2.2h.4c0-.1,0-1.2,0-1.3,0-.2,0-1.4,0-1.9"/>
    <path class="st0" d="M4.4,51.3c0-.1,0-.7,0-.8,0-.2,0-.4,0-.5,0-.1,0-.4,0-.7,0-.3-.2-1.8-.2-2.1,0-.3-.3-1.9-.3-2,0-.1,0-.4-.1-.5,0,0,0-.4-.1-.6,0-.2-.5-2.8-.6-3,0-.2-.4-1.2-.5-1.6,0-.2-.3-1.1-.5-2.1-.1-.9,0-1.9,0-2,0-.4.2-1.4.3-1.6,0-.2.2-.4.2-.5,0,0,0-.3.2-.4,0,0,.2-.4.2-.4,0,0,.1-.4.2-.5,0,0,.3-.7.5-1.3.2-.6.3-1.3.3-1.4,0-.1.2-1.2.3-2.3,0-1.1.1-2.2,0-2.3,0-.2,0-.5,0-.7,0-.2,0-.4,0-.5,0,0,0-.4,0-.4,0,0,0-.1,0-.3,0-.1,0-.4,0-.6,0-.1,0-.3,0-.5,0,0,0-.3,0-.4,0-.2,0-.4-.1-.7,0-.4-1-2.7-1.1-2.9,0-.2-.5-1-.6-1.3,0,0-.1-.5-.3-.8,0-.1,0-.4-.1-.5,0,0-.2-.5-.3-.9-.1-.5-.3-.9-.3-1,0-.2,0-.5,0-.5,0,0,0-.4,0-.6,0-.1-.2-.9-.1-1.1,0-.1,0-.7,0-.8,0-.1,0-.7,0-.9,0,0,0-.4,0-.6h-.4c0,.2,0,.9-.1,1.5,0,.6,0,1.2,0,1.4,0,.1,0,.8.2,1.4.1.7.3,1.3.3,1.4,0,.1.2.7.3.9,0,.2.4,1,.4,1.3,0,.1.5,1.1.9,2,.4.9.7,1.9.8,2,0,.2.1.5.1.7,0,.2,0,.5,0,.6,0,.1,0,.3,0,.4,0,0,0,.3,0,.3,0,.3,0,.4,0,.4,0,.1,0,.4,0,.5,0,0,0,1,0,1.9,0,.9,0,1.8-.1,2,0,.1-.1,1.1-.3,2-.2.9-.5,1.8-.6,1.9-.1.3-.4,1-.5,1.1,0,.1-.2.4-.3.5,0,.1-.2.4-.2.5,0,0-.2.4-.2.6,0,.2-.2.8-.2,1.2,0,.2,0,.7,0,1.2,0,.5.1,1.1.1,1.3,0,.4.4,1.7.4,1.7,0,.1.1.4.2.6,0,.2.1.4.1.5,0,.1.2.8.2,1,0,.2.5,1.9.5,2.1,0,.3.2.7.2.8,0,0,.2.5.1.6,0,0,.1.7.2,1,0,.3.1.9.2,1,0,.2,0,.3,0,.5,0,0,0,.3,0,.4,0,0,0,.3,0,.5,0,.1,0,.6,0,.9,0,.2,0,1.4,0,1.5,0,.2,0,.3,0,.6,0,0,0,.6,0,.6h.4s0-.3,0-.3c0,0,0-.4,0-.5"/>
  </g>
</svg>